<svg xmlns="http://www.w3.org/2000/svg" width="64" height="64" viewBox="0 0 64 64" fill="none">
  <rect width="64" height="64" rx="15" fill="#065f46"></rect>
  <g transform="rotate(-40 32 32)">
    <path d="M20,14 L46,14 C48.2,14 50,15.8 50,18 L50,44 C50,46.2 48.2,48 46,48 L20,48 C18.6,48 17.3,47.3 16.5,46.1 L8.8,35.1 C7.9,33.8 7.9,32.2 8.8,30.9 L16.5,19.9 C17.3,18.7 18.6,18 20,18 Z" fill="#f59e0b"></path>
    <circle cx="18" cy="31" r="3.6" fill="#065f46"></circle>
    <path d="M40,22 C31,25 26,32 27.5,40 C29.3,37 32,35 35.5,34 C32,37 30.5,41 30.7,45 C38,41.5 43,34.5 42,26.5 C41,23.5 41.5,21.4 40,22 Z" fill="#16a34a" transform="rotate(40 32 32)"></path>
  </g>
</svg>